{"title":"Sunday Without God","uid":11685278,"size":1324215743,"categoryP":"video","categoryS":"tv_shows","magnet":"?xt=urn:btih:738d4fdfea1e82a64e5551ea0229da68113a5590&amp;dn=Sunday+Without+God&amp;tr=udp%3A%2F%2Ftracker.openbittorrent.com%3A80&amp;tr=udp%3A%2F%2Fopen.demonii.com%3A1337&amp;tr=udp%3A%2F%2Ftracker.coppersurfer.tk%3A6969&amp;tr=udp%3A%2F%2Fexodus.desync.com%3A6969","seeders":2,"leechers":0,"uploader":"p7trick","files":14,"time":1423292931,"description":"downloaded from watchcartoononline\n\nSunday Without God ENGLISH DUBBED eps 1-12\nSunday Without God OVA ENGLISH DUBBED\n_________________________________________________________\n\nFormat : Flash Video\nFile size : 102 MiB\nDuration : 27mn 42s\nOverall bit rate : 513 Kbps\n\n\nVideo\nFormat : AVC\nFormat/Info : Advanced Video Codec\nFormat profile : &lt;a class=&quot;__cf_email__&quot; href=&quot;/cdn-cgi/l/email-protection&quot; data-cfemail=&quot;fdb5949a95bdb1ced3cd&quot;&gt;[email&amp;#160;protected]&lt;/a&gt;&lt;script cf-hash='f9e31' type=&quot;text/javascript&quot;&gt;\n/* &lt;![CDATA[ */!function(){try{var t=&quot;currentScript&quot;in document?document.currentScript:function(){for(var t=document.getElementsByTagName(&quot;script&quot;),e=t.length;e--;)if(t[e].getAttribute(&quot;cf-hash&quot;))return t[e]}();if(t&amp;&amp;t.previousSibling){var e,r,n,i,c=t.previousSibling,a=c.getAttribute(&quot;data-cfemail&quot;);if(a){for(e=&quot;&quot;,r=parseInt(a.substr(0,2),16),n=2;a.length-n;n+=2)i=parseInt(a.substr(n,2),16)^r,e+=String.fromCharCode(i);e=document.createTextNode(e),c.parentNode.replaceChild(e,c)}}}catch(u){}}();/* ]]&gt; */&lt;/script&gt;\nFormat settings, CABAC : Yes\nFormat settings, ReFrames : 5 frames\nCodec ID : 7\nDuration : 27mn 42s\nBit rate : 368 Kbps\nWidth : 852 pixels\nHeight : 480 pixels\nDisplay aspect ratio : 16:9\nFrame rate mode : Constant\nFrame rate : 23.976 fps\nColor space : YUV\nChroma subsampling : 4:2:0\nBit depth : 8 bits\nScan type : Progressive\nBits/(Pixel*Frame) : 0.037\nStream size : 75.0 MiB (74%)\n\n\nAudio\nFormat : AAC\nFormat/Info : Advanced Audio Codec\nFormat profile : LC\nCodec ID : 10\nDuration : 27mn 42s\nBit rate : 126 Kbps\nChannel(s) : 2 channels\nChannel positions : Front: L R\nSampling rate : 44.1 KHz\nCompression mode : Lossy\nStream size : 26.3 MiB (26%)\nLanguage : English\n\n_________________________________________________________\n\nSummary:\nGod abandoned the world on Sunday. As a result, nobody in the world can die or reproduce. A little girl, Ai, is the gravekeeper for a village. She has prepared 47 graves for the eventual deaths of every member of the village. Later, a boy who identifies himself as Hampnie Hambart, the Man-eating Toy, which is coincidentally the name that Ai's mother left behind as the name of her father, arrives in the village and slaughters everybody. Just what is going on?\n\n\n\nFor updates/requests:\nTwitter - @p7tricktorrent\nFacebook - /p7tricktorrent\n_________________________________________________________\n\nSEED!\n\nshare ratio:\n&quot;Scumbag = 0.1:1\nLeecher = 0.999:1\nMinimum = 1:1\nGood = 3:1\nGreat = 5:1\nAwesome = 10:1\n1337 = 100:1&quot;","torrent":{"xt":"urn:btih:738d4fdfea1e82a64e5551ea0229da68113a5590","amp;dn":"Sunday+Without+God","amp;tr":["udp%3A%2F%2Ftracker.openbittorrent.com%3A80","udp%3A%2F%2Fopen.demonii.com%3A1337","udp%3A%2F%2Ftracker.coppersurfer.tk%3A6969","udp%3A%2F%2Fexodus.desync.com%3A6969"],"infoHash":"738d4fdfea1e82a64e5551ea0229da68113a5590","infoHashBuffer":{"type":"Buffer","data":[115,141,79,223,234,30,130,166,78,85,81,234,2,41,218,104,17,58,85,144]},"announce":[],"urlList":[]}}